<svg width="132" height="66" viewBox="0 0 132 66" fill="none" xmlns="http://www.w3.org/2000/svg">
<path fill-rule="evenodd" clip-rule="evenodd" d="M66.0158 13.5915C67.2988 13.2506 72.0357 11.6556 72.0357 6.59942C72.0357 3.67409 70.9247 0.188721 65.6293 0.188721C62.7551 0.188721 59.3979 1.83246 59.3979 6.47156C59.3979 9.83825 61.5022 10.7027 61.5928 10.7393L61.8766 10.0118C61.8071 9.98434 60.1739 9.27814 60.1739 6.47464C60.1739 1.23891 64.7175 0.974067 65.6293 0.974067C69.4182 0.974067 71.2629 2.8157 71.2629 6.60244C71.2629 11.7651 65.7923 12.8549 65.5599 12.9006L65.2429 12.9614V22.4557L6.22632 45.846C1.20558 47.8368 -0.309937 52.6098 0.411664 56.4604C1.04866 59.8454 3.56053 63.2578 7.82344 64.031C8.09205 65.0263 8.98575 65.76 10.0576 65.76H121.198C122.27 65.76 123.163 65.0263 123.432 64.031C127.698 63.2578 130.21 59.8484 130.844 56.4604C131.568 52.6098 130.053 47.8337 125.032 45.846L125.035 45.843L66.0158 22.4526V13.5915ZM121.2 61.0632H10.057C8.84031 61.0632 7.85005 62.0099 7.75042 63.2122C3.97351 62.4269 1.74552 59.3615 1.17188 56.3145C0.507658 52.7804 1.89943 48.4 6.50648 46.5736L65.6287 23.1438L124.751 46.5736C129.358 48.4 130.75 52.7834 130.086 56.3145V56.3114C129.512 59.3585 127.284 62.4238 123.507 63.2122C123.404 62.0099 122.417 61.0632 121.2 61.0632Z" fill="#1D1D1B"/>
</svg>
