<svg width="41" height="40" viewBox="0 0 41 40" fill="none" xmlns="http://www.w3.org/2000/svg">
<rect x="1" y="0.5" width="39" height="39" rx="19.5" fill="white" stroke="black"/>
<path fill-rule="evenodd" clip-rule="evenodd" d="M28.0635 12.8643C28.5321 12.8643 28.9119 13.2441 28.9119 13.7126C28.9119 14.1812 28.5321 14.561 28.0635 14.561H12.9382C12.4697 14.561 12.0898 14.1812 12.0898 13.7126C12.0898 13.2441 12.4697 12.8643 12.9382 12.8643H28.0635Z" fill="black"/>
<path fill-rule="evenodd" clip-rule="evenodd" d="M28.0635 19.6514C28.5321 19.6514 28.9119 20.0312 28.9119 20.4998C28.9119 20.9683 28.5321 21.3481 28.0635 21.3481H12.9382C12.4697 21.3481 12.0898 20.9683 12.0898 20.4998C12.0898 20.0312 12.4697 19.6514 12.9382 19.6514H28.0635Z" fill="black"/>
<path fill-rule="evenodd" clip-rule="evenodd" d="M28.0635 26.4385C28.5321 26.4385 28.9119 26.8183 28.9119 27.2869C28.9119 27.7554 28.5321 28.1353 28.0635 28.1353H12.9382C12.4697 28.1353 12.0898 27.7554 12.0898 27.2869C12.0898 26.8183 12.4697 26.4385 12.9382 26.4385H28.0635Z" fill="black"/>
</svg>
