<svg width="1640" height="140" viewBox="0 0 1640 140" fill="none" xmlns="http://www.w3.org/2000/svg">
<g clip-path="url(#clip0_1_935)">
<path fill-rule="evenodd" clip-rule="evenodd" d="M787.92 0.147949C797.845 0.147949 805.891 8.19387 805.891 18.119V121.875C805.891 131.8 797.845 139.846 787.92 139.846H575.862C565.936 139.846 557.891 131.8 557.891 121.875V18.119C557.891 8.19387 565.936 0.147949 575.862 0.147949H787.92Z" fill="#D9D9D9"/>
<path fill-rule="evenodd" clip-rule="evenodd" d="M1065.92 0.147949C1075.84 0.147949 1083.89 8.19387 1083.89 18.119V121.875C1083.89 131.8 1075.84 139.846 1065.92 139.846H853.862C843.936 139.846 835.891 131.8 835.891 121.875V18.119C835.891 8.19387 843.936 0.147949 853.862 0.147949H1065.92Z" fill="#D9D9D9"/>
<path fill-rule="evenodd" clip-rule="evenodd" d="M1343.92 0.147949C1353.84 0.147949 1361.89 8.19387 1361.89 18.119V121.875C1361.89 131.8 1353.84 139.846 1343.92 139.846H1131.86C1121.94 139.846 1113.89 131.8 1113.89 121.875V18.119C1113.89 8.19387 1121.94 0.147949 1131.86 0.147949H1343.92Z" fill="#D9D9D9"/>
<path fill-rule="evenodd" clip-rule="evenodd" d="M231.92 0.147949C241.845 0.147949 249.891 8.19387 249.891 18.119V121.875C249.891 131.8 241.845 139.846 231.92 139.846H19.8617C9.93649 139.846 1.89062 131.8 1.89062 121.875V18.119C1.89062 8.19387 9.93649 0.147949 19.8617 0.147949H231.92Z" fill="#D9D9D9"/>
<path fill-rule="evenodd" clip-rule="evenodd" d="M1621.92 0.147949C1631.84 0.147949 1639.89 8.19387 1639.89 18.119V121.875C1639.89 131.8 1631.84 139.846 1621.92 139.846H1409.86C1399.94 139.846 1391.89 131.8 1391.89 121.875V18.119C1391.89 8.19387 1399.94 0.147949 1409.86 0.147949H1621.92Z" fill="#D9D9D9"/>
<path fill-rule="evenodd" clip-rule="evenodd" d="M509.92 0.147949C519.845 0.147949 527.891 8.19387 527.891 18.119V121.875C527.891 131.8 519.845 139.846 509.92 139.846H297.862C287.936 139.846 279.891 131.8 279.891 121.875V18.119C279.891 8.19387 287.936 0.147949 297.862 0.147949H509.92Z" fill="#D9D9D9"/>
</g>
<defs>
<clipPath id="clip0_1_935">
<rect width="1640" height="140" fill="white" transform="translate(-0.109375 -0.00292969)"/>
</clipPath>
</defs>
</svg>
