<svg width="62" height="63" viewBox="0 0 62 63" fill="none" xmlns="http://www.w3.org/2000/svg">
<g clip-path="url(#clip0_1_1040)">
<path d="M31 62.1094C48.1208 62.1094 62 48.2302 62 31.1094C62 13.9885 48.1208 0.109375 31 0.109375C13.8792 0.109375 0 13.9885 0 31.1094C0 48.2302 13.8792 62.1094 31 62.1094Z" fill="url(#paint0_linear_1_1040)"/>
<path fill-rule="evenodd" clip-rule="evenodd" d="M14.0324 30.7822C23.0695 26.8449 29.0957 24.2492 32.1109 22.9951C40.7199 19.4143 42.5088 18.7922 43.6748 18.7717C43.9312 18.7672 44.5046 18.8307 44.876 19.1321C45.1896 19.3866 45.2759 19.7304 45.3172 19.9716C45.3585 20.2129 45.4099 20.7625 45.3691 21.192C44.9025 26.0938 42.8839 37.9893 41.8569 43.4794C41.4223 45.8025 40.5667 46.5814 39.7383 46.6576C37.9381 46.8233 36.5711 45.4679 34.8275 44.325C32.0991 42.5365 30.5577 41.4231 27.9093 39.6779C24.8487 37.6609 26.8328 36.5524 28.577 34.7407C29.0335 34.2666 36.9654 27.052 37.1189 26.3975C37.1381 26.3156 37.1559 26.0105 36.9746 25.8494C36.7934 25.6883 36.5258 25.7434 36.3328 25.7872C36.0591 25.8493 31.7005 28.7302 23.2568 34.4299C22.0196 35.2795 20.899 35.6934 19.895 35.6717C18.7881 35.6478 16.659 35.0459 15.0762 34.5314C13.1348 33.9003 11.5918 33.5667 11.7262 32.4949C11.7962 31.9367 12.5649 31.3658 14.0324 30.7822Z" fill="white"/>
</g>
<defs>
<linearGradient id="paint0_linear_1_1040" x1="31" y1="0.109375" x2="31" y2="61.6495" gradientUnits="userSpaceOnUse">
<stop stop-color="#2AABEE"/>
<stop offset="1" stop-color="#229ED9"/>
</linearGradient>
<clipPath id="clip0_1_1040">
<rect width="62" height="62" fill="white" transform="translate(0 0.109375)"/>
</clipPath>
</defs>
</svg>
