<svg width="63" height="64" viewBox="0 0 63 64" fill="none" xmlns="http://www.w3.org/2000/svg">
<g clip-path="url(#clip0_1_1041)">
<path d="M0 30.3474C0 16.0921 0 8.96451 4.42855 4.53597C8.85709 0.107422 15.9847 0.107422 30.24 0.107422H32.76C47.0153 0.107422 54.1429 0.107422 58.5715 4.53597C63 8.96451 63 16.0921 63 30.3474V32.8674C63 47.1227 63 54.2503 58.5715 58.6789C54.1429 63.1074 47.0153 63.1074 32.76 63.1074H30.24C15.9847 63.1074 8.85709 63.1074 4.42855 58.6789C0 54.2503 0 47.1227 0 32.8674V30.3474Z" fill="#0077FF"/>
<path d="M33.5212 45.4938C19.1625 45.4938 10.9726 35.65 10.6314 19.27H17.8239C18.0601 31.2925 23.3625 36.385 27.5625 37.435V19.27H34.3353V29.6388C38.4828 29.1925 42.8397 24.4675 44.3097 19.27H51.0824C49.9536 25.675 45.2286 30.4 41.8686 32.3425C45.2286 33.9175 50.6101 38.0388 52.6576 45.4938H45.2024C43.6011 40.5063 39.6115 36.6475 34.3353 36.1225V45.4938H33.5212Z" fill="white"/>
</g>
<defs>
<clipPath id="clip0_1_1041">
<rect width="63" height="63" fill="white" transform="translate(0 0.107422)"/>
</clipPath>
</defs>
</svg>
