<svg width="32" height="38" viewBox="0 0 32 38" fill="none" xmlns="http://www.w3.org/2000/svg">
<path fill-rule="evenodd" clip-rule="evenodd" d="M0.307936 28.4769L4.40963 30.845C4.82019 31.082 5.33341 30.7857 5.33341 30.3116L5.33328 20.1281C5.33325 19.6541 5.84646 19.3577 6.25702 19.5948L15.3834 24.8642C15.7645 25.0842 16.234 25.0843 16.6151 24.8643L20.4099 22.6735C20.8204 22.4365 21.3336 22.7328 21.3336 23.2068V27.5877C21.3336 28.0277 21.0989 28.4343 20.7178 28.6544L16.6161 31.0226C16.235 31.2426 15.7655 31.2426 15.3844 31.0226L11.5905 28.8321C11.18 28.5951 10.6668 28.8914 10.6668 29.3655V34.102C10.6668 34.322 10.7841 34.5253 10.9747 34.6353L15.6921 37.3589C15.8826 37.4689 16.1174 37.4689 16.3079 37.3589L21.0256 34.6351C21.2161 34.5251 21.3335 34.3218 21.3335 34.1018V29.3786C21.3335 28.9385 21.5682 28.5319 21.9493 28.3119L25.743 26.1215C26.1536 25.8844 26.6668 26.1807 26.6668 26.6548L26.6667 30.3116C26.6667 30.7856 27.1799 31.082 27.5904 30.8449L31.6921 28.4769C31.8826 28.3669 32 28.1635 32 27.9435V17.0488C32 16.5747 31.4868 16.2784 31.0763 16.5154L22.2572 21.6065C21.8467 21.8435 21.3335 21.5472 21.3335 21.0731V16.6925C21.3335 16.2525 21.5683 15.8458 21.9494 15.6258L31.076 10.3572C31.4866 10.1202 31.4866 9.52755 31.0761 9.29052L26.9749 6.92271C26.7844 6.81269 26.5496 6.81269 26.3591 6.92268L16.9227 12.37C16.5121 12.607 16.5121 13.1997 16.9228 13.4367L20.4094 15.4493C20.82 15.6862 20.8201 16.2789 20.4095 16.5159L16.6157 18.7064C16.2346 18.9264 15.7651 18.9264 15.384 18.7064L6.25706 13.4373C5.84646 13.2003 5.84646 12.6077 6.25702 12.3707L20.4101 4.19922C20.8207 3.96216 20.8207 3.36959 20.4101 3.13256L16.3079 0.76413C16.1174 0.654144 15.8826 0.654144 15.6921 0.76413L0.92384 9.29056C0.51328 9.52758 0.51328 10.1202 0.923808 10.3572L4.7176 12.5477C5.09869 12.7677 5.33344 13.1744 5.33341 13.6144L5.33306 17.995C5.33302 18.4691 4.81984 18.7654 4.40928 18.5283L0.923776 16.5158C0.513216 16.2788 0 16.5751 0 17.0492V27.9435C0 28.1635 0.117376 28.3669 0.307936 28.4769Z" fill="#1B1B1B"/>
</svg>
