<svg width="33" height="38" viewBox="0 0 33 38" fill="none" xmlns="http://www.w3.org/2000/svg">
<path fill-rule="evenodd" clip-rule="evenodd" d="M1.23762 28.3675L5.33932 30.7356C5.74988 30.9726 6.2631 30.6763 6.2631 30.2023L6.26297 20.0188C6.26294 19.5447 6.77615 19.2484 7.18671 19.4854L16.3131 24.7549C16.6942 24.9749 17.1637 24.9749 17.5448 24.7549L21.3396 22.5641C21.7501 22.3271 22.2633 22.6234 22.2633 23.0974V27.4783C22.2633 27.9183 22.0286 28.3249 21.6475 28.545L17.5458 30.9132C17.1647 31.1333 16.6952 31.1333 16.3141 30.9132L12.5202 28.7227C12.1097 28.4857 11.5964 28.782 11.5964 29.2561V33.9926C11.5964 34.2126 11.7138 34.4159 11.9043 34.5259L16.6218 37.2495C16.8123 37.3595 17.0471 37.3595 17.2376 37.2495L21.9553 34.5258C22.1458 34.4158 22.2632 34.2125 22.2632 33.9924V29.2692C22.2632 28.8292 22.4979 28.4226 22.879 28.2026L26.6727 26.0121C27.0833 25.7751 27.5965 26.0714 27.5965 26.5455L27.5964 30.2022C27.5963 30.6763 28.1096 30.9726 28.5201 30.7356L32.6218 28.3675C32.8123 28.2575 32.9297 28.0542 32.9297 27.8342V16.9394C32.9297 16.4653 32.4165 16.1691 32.006 16.4061L23.1869 21.4971C22.7763 21.7341 22.2632 21.4378 22.2632 20.9638V16.5831C22.2632 16.1431 22.498 15.7364 22.8791 15.5164L32.0057 10.2478C32.4163 10.0108 32.4163 9.41817 32.0058 9.18115L27.9046 6.81334C27.714 6.70332 27.4793 6.70332 27.2888 6.8133L17.8524 12.2606C17.4418 12.4976 17.4418 13.0903 17.8524 13.3273L21.3391 15.3399C21.7497 15.5769 21.7498 16.1695 21.3392 16.4066L17.5454 18.597C17.1643 18.817 16.6948 18.817 16.3137 18.597L7.18674 13.3279C6.77615 13.0909 6.77615 12.4983 7.18671 12.2613L21.3398 4.08984C21.7504 3.85278 21.7504 3.26021 21.3398 3.02319L17.2376 0.654755C17.0471 0.544769 16.8123 0.544769 16.6218 0.654755L1.85353 9.18118C1.44297 9.41821 1.44297 10.0108 1.8535 10.2478L5.64729 12.4383C6.02838 12.6583 6.26313 13.065 6.2631 13.505L6.26274 17.8857C6.26271 18.3597 5.74953 18.656 5.33897 18.4189L1.85346 16.4065C1.4429 16.1694 0.929688 16.4657 0.929688 16.9398V27.8342C0.929688 28.0542 1.04706 28.2575 1.23762 28.3675Z" fill="#1B1B1B"/>
</svg>
