<svg width="78" height="62" viewBox="0 0 78 62" fill="none" xmlns="http://www.w3.org/2000/svg">
<path d="M76.2465 26.3654C77.2109 24.001 76.616 21.2886 74.8559 19.4385L70.7818 27.8415C72.0169 29.2089 73.1317 30.4439 74.1707 31.4548L76.2465 26.3654Z" fill="#1B1B1B"/>
<path d="M66.4424 23.2031L62.5145 31.6159C63.9847 33.2374 65.3425 34.8882 66.6011 36.4643L70.7818 27.8415C69.485 26.4058 68.0556 24.8242 66.4424 23.2031Z" fill="#1B1B1B"/>
<path d="M55.9983 25.5294L52.5156 33.8018C54.8426 35.7368 56.9654 37.6733 58.8366 39.4932L62.5145 31.6159C60.553 29.4526 58.3915 27.3415 55.9983 25.5294Z" fill="#1B1B1B"/>
<path d="M51.92 12.7535L48.5154 21.3836C51.2373 22.3536 53.7225 23.8063 55.9983 25.5294L59.5049 17.2002C57.2652 15.5774 54.7563 14.055 51.92 12.7535Z" fill="#1B1B1B"/>
<path d="M52.2895 3.69941C50.6004 3.1767 48.5529 2.74841 46.3888 2.40453L43.5865 10.1175C45.7179 10.4816 47.9991 11.0981 50.4076 12.0941C50.9219 12.3068 51.4259 12.5268 51.92 12.7535L55.1104 4.66629C54.2132 4.32707 53.2742 4.00416 52.2895 3.69941Z" fill="#1B1B1B"/>
<path d="M70.3846 14.7595C68.2749 12.6523 65.9508 10.5798 63.0846 8.69727L59.5049 17.2002C62.1644 19.1271 64.4444 21.1954 66.4424 23.2031L70.3846 14.7595Z" fill="#1B1B1B"/>
<path d="M63.038 43.8135C64.7809 45.7139 68.0439 45.275 69.0612 42.9055L69.9913 40.7391C68.9462 39.4472 67.8202 37.9908 66.6011 36.4643L63.038 43.8135Z" fill="#1B1B1B"/>
<path d="M37.7883 26.0767C40.3959 26.5073 43.0622 27.3399 45.6116 28.7443L48.5154 21.3836C48.0906 21.2322 47.66 21.0926 47.2235 20.9655C44.8222 20.2665 42.3946 19.9674 40.0287 19.91L37.7883 26.0767Z" fill="#1B1B1B"/>
<path d="M33.9304 9.83818L29.9958 20.7637C32.9939 20.2916 36.4404 19.8229 40.0287 19.91L43.5865 10.1175C39.8735 9.48308 36.6151 9.61434 33.9304 9.83818Z" fill="#1B1B1B"/>
<path d="M20.3775 25.4755C22.858 26.0767 25.1069 26.3109 28.4143 26.4132C29.0319 24.207 29.9958 20.7637 29.9958 20.7637C27.6768 20.7772 24.691 20.6682 22.6573 20.377L20.3775 25.4755Z" fill="#1B1B1B"/>
<path d="M36.9655 1.40997C34.525 1.26318 32.4354 1.2211 31.1401 1.26536L27.8797 9.36594C29.2824 9.51307 31.4946 10.0413 33.9304 9.83818L36.9655 1.40997Z" fill="#1B1B1B"/>
<path d="M20.3775 25.4755L22.6573 20.377L27.8797 9.36594L31.1401 1.26536C29.2287 1.45127 27.559 2.63642 26.7528 4.37949L1.39557 59.2057C1.0855 59.8761 1.45479 60.6641 2.16841 60.8548C2.71961 61.0021 3.29777 60.7374 3.54649 60.2239L20.3775 25.4755Z" fill="#1B1B1B"/>
<path d="M20.3775 25.4755C22.858 26.0767 25.1069 26.3109 28.4143 26.4132M20.3775 25.4755L22.6573 20.377M20.3775 25.4755L3.54649 60.2239C3.29778 60.7374 2.71961 61.0021 2.16841 60.8548V60.8548C1.45479 60.6641 1.0855 59.8761 1.39557 59.2057L26.7528 4.37949C27.559 2.63642 29.2287 1.45127 31.1401 1.26536V1.26536M31.1401 1.26536C32.4354 1.2211 34.525 1.26318 36.9655 1.40997M31.1401 1.26536L27.8797 9.36594M28.4143 26.4132C31.9233 26.2373 34.2718 25.9255 37.7883 26.0767M28.4143 26.4132C29.0319 24.207 29.9958 20.7637 29.9958 20.7637M36.9655 1.40997C39.8596 1.58404 43.2472 1.90535 46.3888 2.40453M36.9655 1.40997L33.9304 9.83818M46.3888 2.40453C48.5529 2.74841 50.6004 3.1767 52.2895 3.69941C53.2742 4.00416 54.2132 4.32707 55.1104 4.66629M46.3888 2.40453L43.5865 10.1175M37.7883 26.0767C40.3959 26.5073 43.0622 27.3399 45.6116 28.7443M37.7883 26.0767L40.0287 19.91M45.6116 28.7443C46.4826 29.2242 47.34 29.7707 48.1767 30.3909C49.6881 31.511 51.1377 32.6561 52.5156 33.8018M45.6116 28.7443L48.5154 21.3836M55.1104 4.66629C58.2152 5.84016 60.8193 7.20938 63.0846 8.69727M55.1104 4.66629L51.92 12.7535M63.0846 8.69727C65.9508 10.5798 68.2749 12.6523 70.3846 14.7595M63.0846 8.69727L59.5049 17.2002M52.5156 33.8018C54.8426 35.7368 56.9654 37.6733 58.8366 39.4932M52.5156 33.8018L55.9983 25.5294M58.8366 39.4932C60.429 41.042 61.8392 42.5063 63.038 43.8135M58.8366 39.4932L62.5145 31.6159M70.3846 14.7595C71.9482 16.3212 73.3942 17.9019 74.8559 19.4385M70.3846 14.7595L66.4424 23.2031M74.8559 19.4385V19.4385C76.616 21.2886 77.2109 24.001 76.2465 26.3654L74.1707 31.4548M74.8559 19.4385L70.7818 27.8415M63.038 43.8135V43.8135C64.7809 45.7139 68.0439 45.275 69.0612 42.9055L69.9913 40.7391M63.038 43.8135L66.6011 36.4643M69.9913 40.7391L74.1707 31.4548M69.9913 40.7391C68.9462 39.4472 67.8202 37.9908 66.6011 36.4643M22.6573 20.377L27.8797 9.36594M22.6573 20.377C24.691 20.6682 27.6768 20.7772 29.9958 20.7637M74.1707 31.4548C73.1317 30.4439 72.0169 29.2089 70.7818 27.8415M27.8797 9.36594C29.2824 9.51307 31.4946 10.0413 33.9304 9.83818M70.7818 27.8415L66.6011 36.4643M70.7818 27.8415C69.485 26.4058 68.0556 24.8242 66.4424 23.2031M66.4424 23.2031L62.5145 31.6159M66.4424 23.2031C64.4444 21.1954 62.1644 19.1271 59.5049 17.2002M62.5145 31.6159C63.9847 33.2374 65.3425 34.8882 66.6011 36.4643M62.5145 31.6159C60.553 29.4526 58.3915 27.3415 55.9983 25.5294M55.9983 25.5294C53.7225 23.8063 51.2373 22.3536 48.5154 21.3836M55.9983 25.5294L59.5049 17.2002M51.92 12.7535L48.5154 21.3836M51.92 12.7535C54.7563 14.055 57.2652 15.5774 59.5049 17.2002M51.92 12.7535C51.4259 12.5268 50.9219 12.3068 50.4076 12.0941C47.9991 11.0981 45.7179 10.4816 43.5865 10.1175M48.5154 21.3836C48.0906 21.2322 47.66 21.0926 47.2235 20.9655C44.8222 20.2665 42.3946 19.9674 40.0287 19.91M43.5865 10.1175L40.0287 19.91M43.5865 10.1175C39.8735 9.48308 36.6151 9.61434 33.9304 9.83818M40.0287 19.91C36.4404 19.8229 32.9939 20.2916 29.9958 20.7637M33.9304 9.83818L29.9958 20.7637" stroke="#1B1B1B"/>
</svg>
