<svg width="18" height="16" viewBox="0 0 18 16" fill="none" xmlns="http://www.w3.org/2000/svg">
<path fill-rule="evenodd" clip-rule="evenodd" d="M16.0564 0.909668C16.2922 0.909668 16.5183 0.993954 16.685 1.14398C16.8517 1.29401 16.9453 1.4975 16.9453 1.70967V2.97846C16.9453 3.19062 16.8516 3.39408 16.6849 3.54407L10.9835 8.67527C10.8168 8.82526 10.7231 9.02871 10.7231 9.24087V14.2849C10.7231 14.4065 10.6923 14.5265 10.633 14.6358C10.5737 14.745 10.4876 14.8407 10.3811 14.9155C10.2745 14.9903 10.1505 15.0423 10.0183 15.0675C9.8861 15.0927 9.74926 15.0904 9.61821 15.0609L7.84042 14.6609C7.64821 14.6175 7.47758 14.5176 7.35568 14.377C7.23376 14.2364 7.16754 14.0632 7.16754 13.8849V9.24087C7.16749 9.02871 7.07381 8.82526 6.90709 8.67527L1.20576 3.54407C1.03904 3.39408 0.945361 3.19062 0.945312 2.97846V1.70967C0.945312 1.4975 1.03896 1.29401 1.20566 1.14398C1.37237 0.993954 1.59845 0.909668 1.83421 0.909668H16.0564Z" fill="white" stroke="black" stroke-linecap="round" stroke-linejoin="round"/>
</svg>
