<svg width="75" height="62" viewBox="0 0 75 62" fill="none" xmlns="http://www.w3.org/2000/svg">
<path d="M1.03476 26.3654C0.0703917 24.001 0.665286 21.2886 2.4253 19.4385L6.49942 27.8415C5.26435 29.2089 4.14951 30.4439 3.11058 31.4548L1.03476 26.3654Z" fill="#1B1B1B"/>
<path d="M10.8389 23.2031L14.7668 31.6159C13.2966 33.2374 11.9388 34.8882 10.6801 36.4643L6.49942 27.8415C7.79624 26.4058 9.22562 24.8242 10.8389 23.2031Z" fill="#1B1B1B"/>
<path d="M21.283 25.5294L24.7657 33.8018C22.4386 35.7368 20.3158 37.6733 18.4446 39.4932L14.7668 31.6159C16.7282 29.4526 18.8898 27.3415 21.283 25.5294Z" fill="#1B1B1B"/>
<path d="M25.3612 12.7535L28.7658 21.3836C26.044 22.3536 23.5587 23.8063 21.283 25.5294L17.7763 17.2002C20.0161 15.5774 22.525 14.055 25.3612 12.7535Z" fill="#1B1B1B"/>
<path d="M24.9918 3.69941C26.6808 3.1767 28.7283 2.74841 30.8925 2.40453L33.6947 10.1175C31.5633 10.4816 29.2822 11.0981 26.8736 12.0941C26.3594 12.3067 25.8553 12.5268 25.3612 12.7535L22.1708 4.66629C23.068 4.32707 24.007 4.00416 24.9918 3.69941Z" fill="#1B1B1B"/>
<path d="M6.89661 14.7595C9.0064 12.6523 11.3304 10.5798 14.1966 8.69727L17.7763 17.2002C15.1168 19.1271 12.8368 21.1954 10.8389 23.2031L6.89661 14.7595Z" fill="#1B1B1B"/>
<path d="M14.2432 43.8135C12.5003 45.7139 9.23731 45.275 8.22003 42.9055L7.28993 40.7391C8.33505 39.4472 9.46108 37.9908 10.6801 36.4643L14.2432 43.8135Z" fill="#1B1B1B"/>
<path d="M39.493 26.0767C36.8854 26.5073 34.2191 27.3399 31.6696 28.7443L28.7658 21.3836C29.1907 21.2322 29.6213 21.0926 30.0578 20.9655C32.4591 20.2665 34.8866 19.9674 37.2525 19.91L39.493 26.0767Z" fill="#1B1B1B"/>
<path d="M43.3509 9.83817L47.2854 20.7637C44.2874 20.2916 40.8409 19.8229 37.2525 19.91L33.6947 10.1175C37.4078 9.48308 40.6661 9.61434 43.3509 9.83817Z" fill="#1B1B1B"/>
<path d="M56.852 25.5294C54.0987 26.4132 52.3758 26.5891 48.8669 26.4132C48.2493 24.207 47.2854 20.7637 47.2854 20.7637C49.6044 20.7772 52.065 20.6211 54.0987 20.3299L56.852 25.5294Z" fill="#1B1B1B"/>
<path d="M40.3157 1.40997C42.7563 1.26318 44.8459 1.2211 46.1411 1.26535L49.4016 9.36593C47.9989 9.51307 45.7867 10.0413 43.3509 9.83817L40.3157 1.40997Z" fill="#1B1B1B"/>
<path d="M56.852 25.5294L54.0987 20.3299L49.4016 9.36593L46.1411 1.26535C48.0446 1.45049 49.6965 2.65668 50.4525 4.41336L74.1098 59.386C74.3982 60.0561 73.9068 60.8025 73.1773 60.8025C72.776 60.8025 72.4123 60.5661 72.2494 60.1994L56.852 25.5294Z" fill="#1B1B1B"/>
<path d="M56.852 25.5294C54.0987 26.4132 52.3758 26.5891 48.8669 26.4132M56.852 25.5294L54.0987 20.3299M56.852 25.5294L72.2494 60.1994C72.4123 60.5661 72.776 60.8025 73.1773 60.8025V60.8025C73.9068 60.8025 74.3982 60.0561 74.1098 59.386L50.4525 4.41336C49.6965 2.65668 48.0446 1.45049 46.1411 1.26535V1.26535M46.1411 1.26535C44.8459 1.2211 42.7563 1.26318 40.3157 1.40997M46.1411 1.26535L49.4016 9.36593M48.8669 26.4132C45.358 26.2373 43.0095 25.9255 39.493 26.0767M48.8669 26.4132C48.2493 24.207 47.2854 20.7637 47.2854 20.7637M40.3157 1.40997C37.4216 1.58404 34.0341 1.90535 30.8925 2.40453M40.3157 1.40997L43.3509 9.83817M30.8925 2.40453C28.7283 2.74841 26.6808 3.1767 24.9918 3.69941C24.007 4.00416 23.068 4.32707 22.1708 4.66629M30.8925 2.40453L33.6947 10.1175M39.493 26.0767C36.8854 26.5073 34.2191 27.3399 31.6696 28.7443M39.493 26.0767L37.2525 19.91M31.6696 28.7443C30.7986 29.2242 29.9412 29.7707 29.1045 30.3909C27.5931 31.511 26.1436 32.6561 24.7657 33.8018M31.6696 28.7443L28.7658 21.3836M22.1708 4.66629C19.0661 5.84016 16.462 7.20938 14.1966 8.69727M22.1708 4.66629L25.3612 12.7535M14.1966 8.69727C11.3304 10.5798 9.0064 12.6523 6.89661 14.7595M14.1966 8.69727L17.7763 17.2002M24.7657 33.8018C22.4386 35.7368 20.3158 37.6733 18.4446 39.4932M24.7657 33.8018L21.283 25.5294M18.4446 39.4932C16.8523 41.042 15.4421 42.5063 14.2432 43.8135M18.4446 39.4932L14.7668 31.6159M6.89661 14.7595C5.33302 16.3212 3.88709 17.9019 2.4253 19.4385M6.89661 14.7595L10.8389 23.2031M2.4253 19.4385V19.4385C0.665286 21.2886 0.070392 24.001 1.03476 26.3654L3.11058 31.4548M2.4253 19.4385L6.49942 27.8415M14.2432 43.8135V43.8135C12.5003 45.7139 9.23731 45.275 8.22003 42.9055L7.28993 40.7391M14.2432 43.8135L10.6801 36.4643M7.28993 40.7391L3.11058 31.4548M7.28993 40.7391C8.33505 39.4472 9.46108 37.9908 10.6801 36.4643M54.0987 20.3299L49.4016 9.36593M54.0987 20.3299C52.065 20.6211 49.6044 20.7772 47.2854 20.7637M3.11058 31.4548C4.14951 30.4439 5.26435 29.2089 6.49942 27.8415M49.4016 9.36593C47.9989 9.51307 45.7867 10.0413 43.3509 9.83817M6.49942 27.8415L10.6801 36.4643M6.49942 27.8415C7.79624 26.4058 9.22562 24.8242 10.8389 23.2031M10.8389 23.2031L14.7668 31.6159M10.8389 23.2031C12.8368 21.1954 15.1168 19.1271 17.7763 17.2002M14.7668 31.6159C13.2966 33.2374 11.9388 34.8882 10.6801 36.4643M14.7668 31.6159C16.7282 29.4526 18.8898 27.3415 21.283 25.5294M21.283 25.5294C23.5587 23.8063 26.044 22.3536 28.7658 21.3836M21.283 25.5294L17.7763 17.2002M25.3612 12.7535L28.7658 21.3836M25.3612 12.7535C22.525 14.055 20.0161 15.5774 17.7763 17.2002M25.3612 12.7535C25.8553 12.5268 26.3594 12.3068 26.8736 12.0941C29.2822 11.0981 31.5633 10.4816 33.6947 10.1175M28.7658 21.3836C29.1907 21.2322 29.6213 21.0926 30.0578 20.9655C32.4591 20.2665 34.8866 19.9674 37.2525 19.91M33.6947 10.1175L37.2525 19.91M33.6947 10.1175C37.4078 9.48308 40.6661 9.61434 43.3509 9.83817M37.2525 19.91C40.8409 19.8229 44.2874 20.2916 47.2854 20.7637M43.3509 9.83817L47.2854 20.7637" stroke="#1B1B1B"/>
</svg>
